<?xml version="1.0" standalone="no"?>
<!DOCTYPE svg PUBLIC "-//W3C//DTD SVG 20010904//EN"
 "http://www.w3.org/TR/2001/REC-SVG-20010904/DTD/svg10.dtd">
<svg version="1.0" xmlns="http://www.w3.org/2000/svg"
 width="192.000000pt" height="192.000000pt" viewBox="0 0 192.000000 192.000000"
 preserveAspectRatio="xMidYMid meet">

<g transform="translate(0.000000,192.000000) scale(0.100000,-0.100000)"
fill="#000000" stroke="none">
<path d="M796 1162 c-3 -5 -39 -87 -80 -181 -61 -140 -72 -171 -57 -171 17 0
57 76 113 212 13 32 26 58 29 58 7 0 52 -105 55 -128 2 -7 17 -42 36 -78 22
-43 39 -64 51 -64 10 0 16 3 14 8 -3 4 -37 84 -77 177 -40 94 -74 171 -75 173
-2 2 -6 -1 -9 -6z"/>
<path d="M200 1136 c0 -13 12 -16 68 -16 75 0 124 -19 155 -61 25 -34 27 -112
4 -156 -25 -47 -63 -63 -152 -63 -62 0 -75 -3 -75 -16 0 -26 170 -16 207 12
52 39 68 71 68 137 0 118 -52 166 -190 175 -74 4 -85 3 -85 -12z"/>
<path d="M1110 1146 c0 -12 132 -336 139 -340 3 -2 38 74 77 170 60 145 68
174 54 174 -13 0 -31 -33 -71 -130 -29 -71 -56 -130 -59 -130 -3 0 -28 57 -57
128 -32 79 -57 128 -67 130 -9 2 -16 1 -16 -2z"/>
<path d="M1580 980 l0 -170 95 0 c78 0 95 3 95 15 0 12 -16 15 -80 15 l-79 0
0 140 1 140 79 0 c64 0 79 3 79 15 0 12 -17 15 -95 15 l-95 0 0 -170z"/>
</g>
</svg>
