<?xml version="1.0" encoding="utf-8"?>
<!-- Generator: Adobe Illustrator 27.0.0, SVG Export Plug-In . SVG Version: 6.00 Build 0)  -->
<svg version="1.1" id="图层_1" xmlns="http://www.w3.org/2000/svg" xmlns:xlink="http://www.w3.org/1999/xlink" x="0px" y="0px"
	 viewBox="0 0 800 800" style="enable-background:new 0 0 800 800;" xml:space="preserve">
<style type="text/css">
	.st0{fill:#FFFFFF;}
</style>
<g>
	<g>
		<path class="st0" d="M16.02,311.02c255.63,0,511.25,0,766.88-0.02c0.9,0,1.1,0.2,1.1,1.1c-0.02,58.79-0.02,117.57,0,176.36
			c0,0.9-0.2,1.1-1.1,1.1c-255.27-0.02-510.53-0.02-765.8,0c-0.9,0-1.1-0.2-1.1-1.1C16.02,429.31,16.02,370.17,16.02,311.02z"/>
		<path d="M59.53,483.78c-11.76,0-21.39,0-31.03,0c-2.04,0-2.15-0.12-2.16-2.19c0-3.63-0.01-7.27,0.01-10.9
			c0.01-1.52,0.23-1.75,1.74-1.75c5.04-0.01,10.08-0.07,15.11,0.01c6.56,0.11,13.11-0.16,19.66-0.33c4.84-0.12,9.67,0.02,14.5-0.2
			c4.31-0.19,8.61-0.38,12.91-0.79c4.58-0.43,9.14-0.93,13.64-1.88c9.15-1.93,17.21-6.01,24.27-12.15
			c6.39-5.55,11.15-12.27,14.66-19.91c2.13-4.63,3.47-9.51,4.53-14.48c1.04-4.91,1.36-9.91,1.44-14.87
			c0.11-6.13-0.48-12.26-1.9-18.29c-1.3-5.47-3.06-10.75-5.59-15.76c-2.38-4.72-5.28-9.09-8.82-13.07
			c-4.35-4.89-9.34-8.94-15.04-12.12c-5.76-3.21-11.88-5.49-18.37-6.77c-8.45-1.67-16.99-2.27-25.58-2.72
			c-15.02-0.8-30.04-0.54-45.07-0.64c-1.98-0.01-2.11-0.13-2.11-2.11c-0.01-3.79-0.01-7.59,0-11.38c0.01-1.6,0.22-1.83,1.79-1.83
			c15.71,0,31.43-0.19,47.14,0.09c6.97,0.12,13.97,0.69,20.89,1.67c6.97,0.98,13.86,2.31,20.46,4.91
			c9.18,3.62,17.42,8.66,24.51,15.57c6.43,6.27,11.49,13.47,15.33,21.56c3.73,7.86,5.97,16.16,7.24,24.73
			c1.09,7.36,1.39,14.79,1,22.21c-0.68,12.69-4.07,24.66-10.12,35.89c-3.61,6.7-7.98,12.8-13.46,18.09
			c-7.5,7.24-16.22,12.39-26.31,15.16c-7.89,2.17-15.92,3.25-24.09,3.84C79.62,484.18,68.51,483.42,59.53,483.78z"/>
		<path d="M232.95,483.78c-2.48,0-4.96,0.02-7.44-0.01c-1.3-0.01-1.42-0.25-0.89-1.42c4.73-10.39,9.48-20.78,14.2-31.18
			c6.22-13.71,12.4-27.43,18.61-41.14c4.3-9.49,8.62-18.97,12.93-28.46c4.34-9.56,8.67-19.13,13.01-28.69
			c4.31-9.49,8.62-18.98,12.93-28.46c1.49-3.27,2.98-6.54,4.46-9.81c0.82-1.81,2.33-2.45,4.18-1.8c0.52,0.18,0.71,0.6,0.91,1.04
			c3.85,8.56,7.71,17.11,11.56,25.67c3.72,8.26,7.42,16.53,11.13,24.8c4.22,9.4,8.42,18.8,12.64,28.19
			c3.3,7.36,6.63,14.7,9.93,22.06c5.06,11.29,10.1,22.6,15.17,33.89c3.66,8.16,7.37,16.29,11.05,24.45c1.44,3.2,2.83,6.43,4.27,9.63
			c0.37,0.81,0.2,1.23-0.72,1.23c-4.96,0-9.91,0-14.87,0c-0.85,0-1.27-0.5-1.59-1.21c-2.18-4.71-4.38-9.41-6.56-14.12
			c-3.05-6.59-6.09-13.19-9.13-19.79c-2.69-5.84-5.55-11.61-8.03-17.53c-3.8-9.05-7.71-18.06-11.89-26.93
			c-4.91-10.44-9.58-20.99-14.37-31.49c-3.38-7.41-6.73-14.83-10.11-22.24c-0.18-0.39-0.27-0.95-0.77-0.98
			c-0.62-0.04-0.69,0.6-0.87,1c-3.59,7.84-7.15,15.69-10.74,23.54c-3.5,7.66-6.87,15.39-10.55,22.96
			c-3.95,8.16-7.56,16.47-11.34,24.7c-4.42,9.61-8.6,19.33-13.06,28.92c-4.9,10.53-9.66,21.13-14.45,31.72
			c-0.49,1.08-1.18,1.5-2.31,1.48C237.83,483.76,235.39,483.78,232.95,483.78z"/>
		<path d="M445.94,319.65c2.16,0,4.32,0.09,6.47-0.03c1.59-0.09,2.39,0.56,2.96,1.98c2.26,5.59,4.6,11.14,6.92,16.71
			c3.39,8.15,6.8,16.28,10.18,24.43c5.35,12.91,10.68,25.83,16.04,38.73c5.01,12.05,10.07,24.09,15.09,36.14
			c1.61,3.87,3.19,7.75,4.79,11.62c0.19,0.47,0.3,1.11,0.92,1.13c0.6,0.02,0.63-0.64,0.81-1.05c5.01-11.84,10.03-23.68,15.03-35.52
			c4.54-10.74,9.05-21.49,13.6-32.23c4.76-11.25,9.54-22.49,14.31-33.74c2.69-6.36,5.36-12.73,8.04-19.1
			c1.07-2.54,2.19-5.05,3.22-7.61c0.44-1.09,1.14-1.49,2.29-1.48c4.72,0.04,9.44,0.01,14.15,0.02c1.45,0,1.55,0.15,0.96,1.52
			c-2.46,5.77-4.94,11.52-7.39,17.29c-3.22,7.57-6.4,15.15-9.62,22.72c-4.04,9.52-8.1,19.03-12.15,28.54
			c-4.32,10.14-8.64,20.27-12.95,30.41c-3.31,7.79-6.6,15.59-9.92,23.37c-4.44,10.39-8.92,20.76-13.35,31.15
			c-1.69,3.96-3.36,7.94-4.97,11.94c-0.47,1.15-1.2,1.51-2.39,1.52c-1.44,0.01-1.77-0.98-2.19-1.99
			c-2.82-6.78-5.63-13.57-8.47-20.35c-2.92-7-5.87-13.99-8.8-20.98c-2.93-7-5.83-14-8.77-21c-5.46-13.04-10.94-26.06-16.41-39.1
			c-4.28-10.2-8.55-20.4-12.81-30.6c-3.34-7.99-6.66-16-9.99-23.99c-1.25-2.98-2.53-5.95-3.79-8.93c-0.57-1.34-0.45-1.52,1-1.53
			C441.14,319.64,443.54,319.65,445.94,319.65z"/>
		<path d="M745.08,485.7c-9.24,0-18.47,0.06-27.7-0.02c-7.2-0.06-14.33-0.95-21.4-2.3c-6.04-1.14-11.9-2.81-17.45-5.45
			c-4.53-2.15-8.75-4.83-12.6-8.04c-6.06-5.06-11.12-10.98-15.19-17.76c-5-8.33-8.61-17.21-10.58-26.7
			c-1.04-5.03-1.86-10.12-1.79-15.3c0.02-1.59,0.22-1.81,1.8-1.82c4.16-0.01,8.32-0.01,12.47,0c1.53,0,1.71,0.16,1.8,1.71
			c0.31,5.51,1.12,10.95,2.54,16.29c2.26,8.5,6.1,16.21,11.76,22.95c7.08,8.44,15.8,14.47,26.48,17.53
			c5.06,1.45,10.23,2.06,15.44,2.69c4.57,0.55,9.18,0.42,13.73,1.05c0.47,0.07,0.96,0.06,1.44,0.07
			c15.99,0.42,31.97,0.19,47.96,0.25c3,0.01,3,0,3,3.02c0,3.35,0,6.71,0,10.06c0,1.73-0.05,1.77-1.72,1.77
			C765.06,485.71,755.07,485.71,745.08,485.7C745.08,485.7,745.08,485.7,745.08,485.7z"/>
		<path d="M766.76,336.9c-8.87,0.14-17.75,0.09-26.62,0.33c-6.54,0.18-13.09,0.29-19.62,0.99c-4.09,0.44-8.2,0.71-12.26,1.36
			c-12.04,1.93-22.98,6.33-32.27,14.45c-8.75,7.65-14.58,17.14-18.13,28.14c-1.11,3.43-0.28,3.12-4.21,3.12
			c-3.88,0.01-7.76,0.01-11.64,0c-1.49,0-1.63-0.15-1.34-1.61c1.33-6.74,3.57-13.17,6.57-19.33c3.44-7.05,7.85-13.47,13.35-19.06
			c7.06-7.17,15.28-12.66,24.67-16.41c7.34-2.93,14.95-4.57,22.77-5.47c6.15-0.71,12.3-1.21,18.5-1.42
			c16.11-0.54,32.21-0.4,48.32-0.43c1.73,0,1.92,0.19,1.92,1.94c0.01,3.87,0.01,7.75,0,11.62c-0.01,1.52-0.23,1.75-1.74,1.76
			C772.28,336.91,769.52,336.9,766.76,336.9z"/>
	</g>
</g>
</svg>
