<?xml version="1.0" encoding="utf-8"?>
<!-- Generator: Adobe Illustrator 27.0.0, SVG Export Plug-In . SVG Version: 6.00 Build 0)  -->
<svg version="1.1" id="图层_1" xmlns="http://www.w3.org/2000/svg" xmlns:xlink="http://www.w3.org/1999/xlink" x="0px" y="0px"
	 viewBox="0 0 800 800" style="enable-background:new 0 0 800 800;" xml:space="preserve">
<style type="text/css">
	.st0{fill:#FFFFFF;}
</style>
<g>
	<path d="M139.71,460.51V341.32h24.73c16.93,0,29.35,1.25,37.27,3.73c7.91,2.49,14.75,6.42,20.5,11.79
		c5.75,5.37,10.18,11.93,13.28,19.67c3.1,7.75,4.65,16.79,4.65,27.14c0,10.35-2.41,20.09-7.22,29.22s-11.34,16.02-19.59,20.67
		c-8.25,4.65-20.11,6.97-35.61,6.97H139.71z M151.17,449.22h13.78c14.39,0,24.82-0.72,31.29-2.16c6.47-1.44,12.14-4.29,17.02-8.55
		c4.87-4.26,8.57-9.43,11.12-15.52c2.54-6.08,3.82-13.06,3.82-20.92c0-7.86-1.47-15.11-4.4-21.75c-2.93-6.64-7.11-12.12-12.53-16.43
		c-5.42-4.32-11.81-7.22-19.17-8.72c-7.36-1.49-18.18-2.24-32.45-2.24h-8.47V449.22z"/>
	<path d="M644.51,462c-15.49,0-27.36-2.32-35.61-6.97c-8.24-4.65-14.77-11.54-19.59-20.67s-7.22-18.87-7.22-29.22
		c0-10.35,1.55-19.39,4.65-27.14c3.1-7.75,7.53-14.3,13.28-19.67c5.76-5.37,12.59-9.3,20.5-11.79c7.91-2.49,20.33-3.73,37.27-3.73
		h24.73V462H644.51z M671.07,354.43h-8.47c-14.28,0-25.09,0.75-32.45,2.24c-7.36,1.49-13.75,4.4-19.17,8.72
		c-5.42,4.32-9.6,9.79-12.53,16.43c-2.93,6.64-4.4,13.89-4.4,21.75c0,7.86,1.27,14.83,3.82,20.92c2.55,6.09,6.25,11.26,11.12,15.52
		c4.87,4.26,10.54,7.11,17.02,8.55c6.47,1.44,16.91,2.16,31.29,2.16h13.78V354.43z"/>
	<path d="M341.73,336.5l55.61,124h-12.78l-18.76-40.67h-51.46l-18.59,40.67h-13.28l56.27-124H341.73z M340.24,362.9l-20.42,44.82
		h40.67L340.24,362.9z"/>
	<path d="M436.52,341.32h12.95l39.51,95.12l40.17-95.12h12.95l-51.96,122.18h-2.49L436.52,341.32z"/>
</g>
<rect x="133.06" y="352.94" class="st0" width="26.64" height="96.28"/>
<path class="st0" d="M357.89,401.95l8.73,19.64l-53.31,0.53l10.72-23.61L357.89,401.95z"/>
<rect x="668.67" y="354.43" class="st0" width="18.4" height="96.28"/>
<path class="st0" d="M596.76,405.38c-11.66,0-23.32,0-34.98,0c-0.57,0-1.13,0-1.7,0c-3.4,0-6.79,0-10.19,0c0-5.35,0-10.7,0-16.04
	c3.71,0,7.42,0,11.13,0c0.56,0,1.13,0,1.69,0c11.35,0,22.7,0,34.05,0C596.76,394.69,596.76,400.04,596.76,405.38z"/>
</svg>
